<?xml version="1.0" standalone="no"?>
<!DOCTYPE svg PUBLIC "-//W3C//DTD SVG 20010904//EN"
 "http://www.w3.org/TR/2001/REC-SVG-20010904/DTD/svg10.dtd">
<svg version="1.0" xmlns="http://www.w3.org/2000/svg"
 width="800.000000pt" height="800.000000pt" viewBox="0 0 800.000000 800.000000"
 preserveAspectRatio="xMidYMid meet">
<metadata>
Created by potrace 1.14, written by Peter Selinger 2001-2017
</metadata>
<g transform="translate(0.000000,800.000000) scale(0.100000,-0.100000)"
fill="#000000" stroke="none">
<path d="M5985 7676 c-244 -56 -613 -287 -879 -549 l-79 -78 -118 10 c-171 16
-531 14 -710 -4 -182 -18 -365 -45 -545 -80 l-130 -26 -170 168 c-180 180
-341 308 -463 370 -100 51 -186 57 -264 20 -135 -67 -326 -303 -423 -525 -31
-72 -32 -74 -18 -130 12 -51 11 -58 -3 -69 -9 -7 -25 -13 -35 -13 -9 0 -22 -8
-27 -18 -12 -23 -91 -334 -91 -360 0 -12 -20 -33 -52 -55 -148 -99 -269 -225
-331 -346 -37 -70 -152 -410 -187 -550 -18 -70 -70 -315 -70 -327 0 -2 -15 -4
-33 -4 -117 0 -307 -106 -433 -243 -142 -153 -223 -321 -271 -562 -27 -140
-24 -409 6 -535 34 -138 75 -242 133 -338 28 -46 47 -87 42 -92 -5 -5 -67 -32
-139 -60 -71 -28 -161 -66 -200 -84 -38 -18 -92 -41 -119 -51 -52 -20 -148
-105 -160 -142 -13 -41 55 -398 124 -655 127 -465 339 -1116 534 -1632 31 -82
56 -159 56 -171 0 -28 30 -55 61 -55 14 0 63 -14 110 -31 46 -17 284 -82 529
-145 245 -63 586 -158 759 -211 l314 -97 71 26 c582 215 804 291 1181 408 301
93 746 220 965 275 245 62 816 191 930 210 260 45 487 99 512 122 27 25 25 97
-4 118 -40 28 -292 103 -501 149 -248 55 -455 89 -697 116 -102 11 -249 30
-327 42 l-142 22 -6 56 c-3 30 -7 71 -9 91 l-4 36 92 6 c137 8 309 72 476 175
64 39 66 39 90 23 58 -41 113 -54 215 -54 97 1 103 2 205 47 139 61 230 129
281 210 l40 62 90 18 c92 17 130 36 268 133 174 123 291 329 291 514 l0 64
248 1 c316 0 430 16 503 69 135 99 216 316 261 690 8 69 13 226 13 420 -1 266
-4 334 -24 480 -36 272 -104 512 -173 613 -71 104 -220 231 -341 293 l-91 45
-41 115 c-23 63 -67 188 -99 279 -75 213 -132 331 -194 400 -41 46 -48 59 -40
75 48 85 -138 712 -284 960 -95 159 -223 321 -280 351 -40 21 -126 25 -193 10z
m142 -111 c24 -7 102 -105 197 -248 103 -155 193 -381 264 -662 47 -190 54
-225 43 -225 -4 0 -35 26 -67 58 -64 63 -135 115 -173 127 -13 4 -76 39 -139
77 -250 152 -439 213 -986 320 l-110 22 65 59 c241 223 615 445 802 476 52 8
63 8 104 -4z m-3283 -179 c31 -15 102 -62 159 -104 127 -95 393 -353 375 -363
-14 -7 -236 -63 -253 -64 -5 0 -35 -10 -65 -22 -30 -12 -127 -48 -215 -79
-228 -80 -484 -187 -598 -250 -53 -30 -99 -54 -101 -54 -5 0 41 161 80 285 86
268 270 553 422 655 40 27 54 31 94 27 25 -2 72 -16 102 -31z m884 -550 c33
-74 21 -156 -31 -209 -59 -58 -279 -169 -457 -231 -328 -114 -386 -133 -475
-150 -228 -44 -414 -144 -543 -295 -56 -65 -127 -190 -172 -301 -59 -148 -59
-149 -130 -186 -36 -19 -97 -59 -136 -89 -73 -59 -209 -204 -246 -263 -12 -20
-24 -30 -26 -24 -11 34 83 406 161 633 90 267 142 344 322 479 334 251 863
471 1465 609 259 59 253 58 268 27z m861 -391 c165 -39 251 -133 251 -274 0
-74 50 -98 138 -67 23 8 84 20 135 25 172 19 320 -13 449 -99 117 -76 238
-218 238 -276 0 -33 27 -54 69 -54 21 0 61 -7 90 -16 83 -24 295 -130 404
-201 l100 -64 -63 -37 c-101 -59 -109 -79 -133 -300 -17 -156 -21 -257 -21
-612 -1 -287 3 -461 12 -535 26 -222 75 -504 112 -650 63 -244 101 -317 188
-358 l47 -22 3 -58 c11 -203 -131 -413 -354 -525 -76 -38 -177 -65 -215 -57
-56 12 -89 -19 -89 -85 0 -42 -84 -129 -167 -173 -83 -43 -204 -71 -283 -65
-45 3 -72 12 -118 41 -33 20 -69 37 -79 37 -10 0 -55 -23 -98 -51 -169 -107
-328 -173 -448 -185 -45 -4 -66 -2 -78 8 -12 10 -22 62 -38 203 -13 105 -42
323 -66 485 -23 162 -41 297 -40 298 2 2 44 -14 93 -37 179 -80 280 -100 305
-60 17 27 0 68 -31 75 -116 24 -320 119 -393 182 -163 140 -197 189 -225 323
-17 80 -11 135 22 200 47 94 210 207 313 216 74 7 89 12 96 33 10 31 -12 58
-51 66 -51 10 -129 -10 -219 -57 -43 -22 -79 -38 -80 -37 -1 2 -7 23 -14 48
-21 75 -80 188 -119 229 -33 34 -44 39 -99 45 -34 4 -97 4 -139 0 l-77 -7 7
29 c3 16 9 111 13 211 4 135 3 190 -7 212 -18 46 -60 55 -213 48 -117 -5 -132
-8 -154 -29 -25 -22 -25 -25 -19 -123 6 -110 27 -239 51 -323 9 -30 15 -55 13
-57 -2 -1 -109 -14 -238 -29 -660 -78 -1308 -203 -1765 -341 -82 -25 -155 -45
-161 -45 -21 0 -91 79 -125 142 -31 58 -34 70 -34 153 1 152 59 292 172 412
33 35 53 65 53 79 0 13 -15 52 -33 86 -26 51 -33 75 -36 139 -4 91 11 148 69
269 147 303 400 542 615 581 33 6 68 18 79 27 19 18 19 35 0 163 -9 67 16 144
78 230 209 290 659 392 1093 248 49 -17 104 -39 121 -50 54 -33 75 -26 155 52
153 147 322 252 514 318 175 61 301 75 424 46z m2471 -1068 c121 -40 220 -99
220 -132 0 -15 3 -16 9 -7 13 21 154 -122 187 -189 14 -30 34 -70 44 -89 24
-44 63 -234 92 -450 19 -140 23 -209 23 -455 -1 -170 -6 -335 -13 -400 -16
-134 -53 -328 -81 -423 -21 -70 -72 -158 -101 -173 -108 -57 -166 -68 -421
-76 -177 -6 -187 -5 -192 13 -48 161 -118 641 -148 1014 -18 214 -15 711 4
905 18 171 52 387 70 445 12 34 14 35 72 40 75 6 177 -4 235 -23z m-5705 -509
c-3 -77 -8 -144 -10 -148 -2 -4 -9 -37 -15 -73 -12 -79 0 -175 32 -249 l20
-48 -55 -72 c-148 -193 -198 -446 -120 -609 17 -35 47 -86 67 -114 24 -33 32
-51 24 -54 -7 -2 -84 -28 -170 -58 -87 -29 -162 -53 -168 -53 -5 0 -10 7 -10
15 0 9 -6 18 -14 21 -8 3 -32 36 -54 72 -199 337 -181 863 40 1190 98 145 229
255 360 302 84 31 80 38 73 -122z m2822 -1004 c26 -32 57 -108 81 -200 l16
-62 -26 -38 c-127 -184 -94 -418 86 -611 l70 -75 43 -292 c78 -534 142 -1093
127 -1117 -3 -5 -10 -9 -15 -9 -6 0 -43 -15 -82 -34 -40 -19 -83 -36 -97 -39
-14 -3 -128 -30 -255 -60 -126 -31 -365 -85 -530 -122 -691 -152 -1337 -309
-2105 -512 -234 -62 -343 -86 -389 -87 l-65 -1 -89 235 c-151 396 -324 925
-468 1430 -96 334 -159 610 -159 691 0 34 4 41 43 63 23 13 74 34 112 47 39
12 84 28 100 35 17 7 40 15 52 19 13 3 30 13 39 22 33 34 577 224 935 328 598
173 1197 286 1999 375 151 16 311 34 355 39 44 5 107 8 139 7 52 -2 62 -6 83
-32z m613 -2489 c39 -8 176 -29 303 -45 394 -52 627 -94 912 -167 160 -40 182
-49 145 -57 -14 -2 -74 -16 -135 -30 -60 -14 -150 -33 -200 -41 -96 -17 -752
-166 -945 -215 -507 -128 -1387 -404 -1900 -595 -279 -105 -269 -102 -332 -82
-266 88 -610 185 -948 268 -437 108 -435 108 -429 113 6 6 1395 355 1654 416
121 28 400 91 620 140 668 149 822 186 890 215 17 7 46 16 65 19 19 4 64 22
100 40 75 39 101 42 200 21z"/>
<path d="M4935 4916 c-96 -35 -289 -128 -496 -239 -109 -58 -129 -73 -144
-104 -17 -34 -17 -38 -1 -67 19 -35 51 -59 186 -141 111 -68 399 -226 485
-267 78 -36 136 -38 170 -3 56 55 22 116 -105 186 -41 23 -156 86 -254 140
-99 54 -184 103 -190 109 -6 6 4 15 30 26 46 19 227 105 370 176 173 85 206
128 147 190 -36 37 -81 36 -198 -6z"/>
<path d="M2464 4710 c-31 -12 -64 -59 -64 -90 0 -58 63 -87 358 -160 94 -24
172 -46 172 -49 0 -3 -95 -80 -211 -171 -238 -187 -257 -205 -276 -257 -18
-52 -17 -60 12 -88 26 -27 73 -33 120 -15 43 16 210 148 400 316 271 240 259
225 252 281 -8 70 -30 84 -203 127 -115 29 -534 119 -538 115 -1 0 -11 -4 -22
-9z"/>
<path d="M952 4055 c0 -16 2 -22 5 -12 2 9 2 23 0 30 -3 6 -5 -1 -5 -18z"/>
<path d="M3670 3595 c-559 -55 -1038 -135 -1638 -276 -622 -145 -1313 -366
-1405 -449 -29 -26 -30 -29 -20 -66 6 -22 23 -104 38 -184 70 -366 192 -805
363 -1306 113 -331 119 -344 149 -360 13 -6 31 -18 41 -27 11 -10 35 -17 58
-17 86 0 451 85 844 195 421 118 1548 408 2035 524 75 18 95 27 127 58 23 23
38 46 38 61 0 57 -106 761 -155 1032 -29 162 -70 401 -91 530 l-38 235 -37 38
c-21 20 -46 36 -56 36 -10 -1 -124 -12 -253 -24z m264 -122 c3 -21 24 -159 47
-308 22 -148 56 -355 75 -460 55 -301 145 -948 134 -955 -6 -4 -45 -14 -88
-24 -410 -94 -1677 -423 -2238 -581 -250 -70 -566 -145 -613 -145 -11 0 -25 8
-30 18 -19 35 -221 639 -280 837 -79 263 -152 541 -196 745 -20 91 -40 175
-45 187 -8 20 -3 24 63 51 176 73 581 200 942 296 175 46 510 126 529 126 9 0
-20 -34 -64 -76 -88 -84 -140 -155 -140 -191 0 -13 -4 -23 -8 -23 -18 0 -97
-60 -159 -121 -191 -187 -280 -373 -323 -673 -29 -211 -27 -295 9 -372 23 -50
37 -66 77 -89 27 -15 51 -29 52 -31 2 -1 -2 -36 -8 -77 -21 -130 15 -160 189
-157 59 2 100 -3 128 -14 104 -39 207 -29 277 26 l38 31 74 -17 c126 -27 232
-17 389 37 162 57 252 112 354 216 l63 65 138 -2 c127 -2 139 -1 170 20 45 31
69 65 90 129 12 36 25 55 37 57 66 12 125 36 152 63 57 56 36 113 -76 202
l-69 54 -12 86 c-31 216 -143 428 -277 524 -83 60 -162 99 -285 143 -134 48
-257 78 -340 84 l-65 4 -5 51 c-4 40 -13 58 -39 85 l-33 34 73 16 c260 60
1012 159 1241 165 46 1 46 1 52 -36z m-1071 -1128 c51 -35 111 -60 195 -80
l72 -18 0 -174 0 -175 -92 -91 c-105 -104 -177 -147 -329 -198 -164 -54 -296
-51 -434 11 -73 32 -110 70 -152 152 -31 62 -31 63 -12 83 32 35 105 216 145
363 3 10 13 6 36 -14 45 -37 104 -61 199 -79 106 -20 165 -19 214 4 70 32 103
89 107 185 2 31 5 56 8 56 3 0 22 -11 43 -25z"/>
</g>
</svg>
